<?xml version="1.0" standalone="no"?>
<!DOCTYPE svg PUBLIC "-//W3C//DTD SVG 20010904//EN"
 "http://www.w3.org/TR/2001/REC-SVG-20010904/DTD/svg10.dtd">
<svg version="1.0" xmlns="http://www.w3.org/2000/svg"
 width="512.000000pt" height="512.000000pt" viewBox="0 0 512.000000 512.000000"
 preserveAspectRatio="xMidYMid meet">

<g transform="translate(0.000000,512.000000) scale(0.100000,-0.100000)"
fill="#FFFFFF" stroke="none">
<path d="M1543 4949 c-17 -5 -96 -42 -175 -82 -260 -131 -460 -279 -663 -488
-363 -374 -591 -833 -677 -1362 -29 -177 -31 -535 -5 -707 80 -519 302 -987
641 -1350 587 -627 1435 -909 2272 -754 751 138 1398 615 1750 1289 75 143 81
180 35 226 -40 40 -85 38 -200 -6 -472 -183 -1048 -185 -1546 -7 -327 117
-589 284 -841 536 -207 208 -354 419 -463 662 -130 291 -188 547 -198 865 -10
336 42 639 159 918 61 146 65 164 45 206 -11 24 -29 41 -52 51 -39 16 -38 16
-82 3z m-189 -409 c-65 -220 -95 -433 -96 -680 0 -196 10 -321 43 -487 235
-1221 1363 -2090 2598 -2003 162 11 302 32 434 66 37 9 70 14 73 11 6 -6 -54
-99 -125 -192 -62 -82 -260 -285 -346 -355 -347 -283 -763 -460 -1200 -510
-128 -14 -412 -12 -535 4 -511 69 -955 288 -1316 650 -341 342 -548 738 -636
1219 -20 106 -23 156 -23 382 0 265 4 309 47 500 134 603 518 1137 1043 1449
32 19 60 34 61 33 2 -2 -8 -41 -22 -87z"/>
<path d="M4316 4238 c-36 -32 -43 -77 -18 -108 l20 -25 221 -3 c122 -2 221 -6
221 -10 0 -9 -115 -141 -335 -386 -82 -92 -156 -181 -163 -197 -21 -49 0 -96
52 -120 38 -17 70 -19 386 -19 326 0 347 1 377 20 18 11 35 31 39 45 8 32 -12
82 -40 98 -14 8 -101 14 -267 17 l-246 5 244 270 c254 282 277 316 257 373 -5
15 -24 34 -44 44 -31 16 -70 18 -357 18 -320 0 -322 0 -347 -22z"/>
<path d="M2265 4188 c-31 -17 -45 -39 -45 -72 0 -69 25 -76 276 -76 192 0 204
-1 195 -17 -9 -17 -45 -58 -339 -382 -68 -75 -132 -149 -143 -166 -43 -68 -10
-140 71 -156 61 -11 645 -11 695 1 87 20 104 118 28 158 -15 8 -99 12 -262 12
-133 0 -241 2 -241 5 0 3 107 125 238 270 159 178 242 278 252 304 19 53 6 90
-40 113 -31 16 -70 18 -350 18 -209 -1 -322 -4 -335 -12z"/>
<path d="M3352 3494 c-18 -12 -22 -24 -20 -52 5 -56 26 -62 216 -62 l163 0
-20 -27 c-11 -16 -99 -118 -196 -228 -96 -110 -178 -210 -181 -222 -10 -37 4
-72 36 -88 24 -12 78 -15 305 -15 318 0 334 4 335 73 0 56 -20 61 -241 67
l-201 5 196 219 c108 120 199 229 202 241 10 42 0 79 -26 92 -18 9 -96 13
-285 13 -222 0 -264 -2 -283 -16z"/>
</g>
</svg>
